<?xml version="1.0" encoding="UTF-8" ?>
<!DOCTYPE svg PUBLIC "-//W3C//DTD SVG 1.1//EN" "http://www.w3.org/Graphics/SVG/1.1/DTD/svg11.dtd">
<svg width="107pt" height="100pt" viewBox="0 0 107 100" version="1.1" xmlns="http://www.w3.org/2000/svg" class='logo'>
<path fill="#ffffff" d=" M 0.00 0.00 L 107.00 0.00 L 107.00 100.00 L 0.00 100.00 L 0.00 0.00 Z" />
<path fill="#00a7e4" d=" M 31.72 0.91 C 40.04 4.25 47.57 9.87 52.66 17.27 C 53.29 35.98 52.58 54.71 53.00 73.43 C 49.01 69.29 45.40 64.63 40.29 61.77 C 37.66 59.80 34.05 59.29 31.68 57.12 C 31.60 38.39 31.53 19.65 31.72 0.91 Z" />
<path fill="#00a7e4" d=" M 57.89 12.84 C 62.81 7.57 68.91 3.37 75.73 0.99 C 75.66 19.88 75.71 38.78 75.70 57.67 C 67.03 60.42 59.80 66.27 54.24 73.35 C 53.79 55.54 54.23 37.71 53.95 19.90 C 53.62 16.91 56.10 14.84 57.89 12.84 Z" />
<path fill="#0276a5" d=" M 14.79 3.67 C 18.19 6.07 21.26 8.91 24.49 11.53 C 25.76 12.21 25.74 13.67 25.74 14.92 C 25.77 30.99 25.63 47.06 25.81 63.13 C 35.23 65.52 44.86 68.90 52.04 75.73 C 48.64 75.22 45.48 73.81 42.21 72.82 C 33.21 70.00 24.12 67.35 14.80 65.83 C 14.63 45.12 14.65 24.39 14.79 3.67 Z" />
<path fill="#0276a5" d=" M 83.58 10.62 C 86.46 8.31 89.18 5.79 92.19 3.65 C 92.52 24.24 92.06 44.84 92.43 65.43 C 84.98 67.45 77.34 68.79 69.99 71.22 C 64.94 72.57 60.10 74.65 55.00 75.84 C 61.98 68.73 71.82 65.77 81.10 63.00 C 81.51 46.67 81.12 30.31 81.28 13.97 C 81.02 12.35 82.59 11.55 83.58 10.62 Z" />
<path fill="#004e6d" d=" M 1.11 10.14 C 3.77 13.43 6.46 16.70 9.01 20.08 C 9.88 21.18 9.50 22.71 9.63 24.00 C 9.52 38.78 9.72 53.57 9.52 68.35 C 23.39 69.75 37.22 72.78 49.97 78.53 C 33.93 75.09 17.62 72.21 1.16 72.39 C 0.43 60.28 1.17 48.13 0.88 36.00 C 1.01 27.38 0.68 18.75 1.11 10.14 Z" />
<path fill="#004e6d" d=" M 98.33 20.37 C 100.83 16.97 103.31 13.56 105.85 10.19 C 106.56 19.09 105.94 28.03 106.07 36.95 C 106.24 48.72 105.98 60.49 106.10 72.27 C 89.56 72.34 73.15 75.00 57.03 78.53 C 69.60 72.99 83.16 69.57 96.87 68.55 C 97.51 55.04 96.99 41.47 97.14 27.94 C 97.32 25.41 96.46 22.45 98.33 20.37 Z" />
<path fill="#004e6d" d=" M 21.35 86.22 C 24.25 84.17 28.00 84.59 31.24 85.47 C 31.20 86.55 31.17 87.64 31.15 88.73 C 29.24 83.45 20.55 85.29 21.21 90.97 C 20.13 96.21 27.26 100.44 30.99 96.23 C 30.91 96.85 30.75 98.10 30.67 98.72 C 27.61 98.83 24.05 99.62 21.45 97.52 C 17.70 95.02 17.58 88.76 21.35 86.22 Z" />
<path fill="#004e6d" d=" M 61.49 85.28 C 64.27 85.70 68.02 84.01 70.08 86.42 C 68.25 86.36 66.43 86.22 64.60 86.10 C 64.60 87.30 64.60 89.69 64.60 90.88 C 65.95 90.83 67.31 90.77 68.66 90.71 C 68.74 91.18 68.90 92.12 68.97 92.59 C 67.54 92.18 66.09 91.81 64.64 91.47 C 64.68 93.95 64.12 96.70 65.66 98.88 C 64.23 98.84 62.79 98.83 61.36 98.84 C 62.98 94.68 62.87 89.50 61.49 85.28 Z" />
<path fill="#004e6d" d=" M 50.60 86.95 C 54.64 85.88 59.50 89.35 58.41 93.78 C 57.72 100.17 47.08 100.86 45.51 94.67 C 44.36 91.14 47.01 87.40 50.60 86.95 Z" />
<path fill="#004e6d" d=" M 34.44 87.13 C 36.91 87.55 40.63 86.20 42.03 88.95 C 43.11 90.75 40.52 92.09 40.45 93.84 C 41.81 95.96 43.74 97.61 45.91 98.87 C 42.06 99.74 40.26 96.28 38.06 93.91 C 35.22 93.90 37.10 97.37 37.60 98.85 C 36.52 98.83 35.44 98.82 34.37 98.82 C 34.82 94.93 34.79 91.01 34.44 87.13 Z" />
<path fill="#165d7a" d=" M 72.49 87.12 C 73.48 87.13 74.46 87.15 75.44 87.16 C 75.46 90.91 73.26 96.17 76.76 98.82 C 75.31 98.80 73.86 98.83 72.41 98.87 C 72.96 94.98 72.90 91.02 72.49 87.12 Z" />
<path fill="#226680" d=" M 79.35 87.29 C 82.30 87.01 85.27 87.18 88.22 87.15 C 86.40 90.90 83.44 93.97 81.84 97.84 C 84.20 97.86 86.55 97.55 88.69 96.51 C 88.14 97.27 88.18 98.68 87.06 98.85 C 84.10 99.14 81.12 98.90 78.17 98.62 C 80.54 95.16 82.98 91.75 85.07 88.11 C 82.95 88.18 80.83 88.37 78.72 88.66 C 78.88 88.32 79.19 87.63 79.35 87.29 Z" />
<path fill="#f1f6f7" d=" M 36.75 87.55 C 38.43 87.90 40.92 88.77 40.27 91.03 C 40.38 92.94 38.14 93.35 36.72 93.55 C 36.70 91.55 36.70 89.55 36.75 87.55 Z" />
<path fill="#ffffff" d=" M 50.03 87.92 C 54.12 86.16 57.36 91.76 55.85 95.25 C 55.44 98.71 50.18 98.81 48.65 96.17 C 47.04 93.67 46.99 89.36 50.03 87.92 Z" />
</svg>
