<?xml version="1.0" standalone="no"?>
<!DOCTYPE svg PUBLIC "-//W3C//DTD SVG 20010904//EN"
 "http://www.w3.org/TR/2001/REC-SVG-20010904/DTD/svg10.dtd">
<svg version="1.0" xmlns="http://www.w3.org/2000/svg"
 width="30.000000pt" height="30.000000pt" viewBox="0 0 30.000000 30.000000"
 preserveAspectRatio="xMidYMid meet">
<metadata>
Created by potrace 1.12, written by Peter Selinger 2001-2015
</metadata>
<g transform="translate(0.000000,30.000000) scale(0.100000,-0.100000)"
fill="#000000" stroke="none">
<path d="M160 278 c58 -24 68 -31 81 -54 12 -22 9 -27 -29 -60 -23 -19 -42
-42 -42 -50 0 -8 -9 -14 -20 -14 -27 0 -25 22 5 58 14 17 25 32 25 35 0 2 -29
2 -65 0 -74 -5 -81 4 -38 49 31 32 18 38 -20 8 -30 -24 -51 -81 -41 -112 3
-13 15 -35 26 -51 16 -22 24 -26 46 -21 15 4 31 11 36 15 14 12 46 11 46 -1 0
-5 6 -10 13 -10 6 0 19 -5 27 -10 37 -25 -51 -40 -118 -21 -19 6 -30 6 -27 1
13 -22 79 -32 120 -18 50 17 105 86 105 132 0 58 -79 137 -135 135 -17 0 -17
-2 5 -11z"/>
</g>
</svg>
